<svg width="72" height="68" viewBox="0 0 72 68" fill="none" xmlns="http://www.w3.org/2000/svg">
<path fill-rule="evenodd" clip-rule="evenodd" d="M71.0086 21.1259C71.0086 21.1259 65.2822 25.8339 63.7366 27.1803C63.4438 27.4352 62.9782 27.2813 62.8966 26.8966C61.9702 22.6215 58.2598 14.8215 58.0246 14.3406L61.5382 25.4828C61.6726 25.9493 61.783 26.4205 61.8694 26.8966L68.3062 55.7259C68.4454 56.4665 68.383 57.2311 68.1286 57.938L63.9574 65.1802C63.583 66.2237 62.5942 66.9162 61.4902 66.9162H54.055C53.3836 66.9162 52.7644 66.5531 52.436 65.9661L51.9299 65.0624C51.586 64.4482 51.478 63.7289 51.6262 63.0402L52.1682 60.5228C52.3023 59.899 52.7356 59.3817 53.3254 59.1402L53.5606 59.0441C55.2347 58.3615 57.0618 58.1548 58.8416 58.4519C59.6446 58.5862 60.2326 59.2862 60.2326 60.102V61.7418L61.0438 59.5971C61.807 57.6158 59.6518 56.9522 58.663 56.7791C58.4038 56.7358 58.015 56.7069 57.5638 56.7069C56.3878 56.7069 54.751 56.8849 53.6038 57.3898L41.815 37.4473C41.047 36.1489 40.5958 34.6918 40.4902 33.1915L39.7318 22.4195L39.559 33.3838C39.4582 35.1631 39.7414 36.3269 40.6246 37.8705L45.8854 46.9208C45.8854 49.2099 34.5635 57.3788 20.4118 52.8454L21.8134 45.8052C22.1062 44.1557 21.4678 42.8958 21.0838 42.2706L20.228 41.2384L20.359 42.5447C20.671 43.5546 20.7238 44.627 20.5174 45.6657L19.0822 52.8646L14.1094 58.4622C13.5622 58.8132 13.3702 59.5298 13.6774 60.1116L15.1126 64.0261C15.8086 65.3389 14.8582 66.9162 13.3798 66.9162H3.43793C2.71827 66.9162 2.06067 66.5085 1.73976 65.8631L1.09656 64.5695C-0.463439 61.4485 -0.353039 57.7505 1.38936 54.7257L3.68856 50.7439C4.02936 50.0803 3.61656 49.4647 3.07416 48.9502C2.72856 48.6184 2.41656 47.8297 2.41656 47.8297C1.33656 45.382 1.45656 39.8277 3.22776 37.4089L6.22776 33.0183C7.21999 31.137 10.2947 29.0366 13.8934 28.9404L27.1894 28.2287C27.6502 28.3056 27.9574 28.7577 27.8614 29.2145L27.2038 32.3355L29.7862 27.8536L38.4646 11.7919C41.671 6.57424 42.6646 6.00198 47.0662 6.05007H51.727L55.2406 1.4143C56.2486 0.0437618 58.9318 -0.172638 60.2086 0.947833L67.4614 7.30519C68.1673 7.92931 68.6511 8.60668 68.8784 9.30397C68.9233 9.44205 68.8002 9.56949 68.6617 9.52621C67.616 9.19852 66.2689 9.08448 65.863 9.08448C65.167 9.08448 64.3462 9.39225 64.3462 10.1857C64.3462 10.984 64.8231 11.5119 65.5798 11.8496C65.5663 11.8002 65.5434 11.739 65.5172 11.669C65.4068 11.3744 65.2385 10.9252 65.479 10.556C65.7046 10.2194 66.43 10.1349 66.9543 10.1393C67.3986 10.1428 68.1951 10.2819 68.7474 10.431C68.9099 10.4749 69.0186 10.623 69.0148 10.7916C69.007 11.1509 68.9771 11.3357 68.8678 11.739C68.8613 11.7662 68.8474 11.8083 68.8308 11.8587C68.7741 12.0312 68.6857 12.2999 68.7526 12.393C68.7526 12.393 70.879 15.0235 71.0278 15.1918C72.103 16.3988 71.8918 20.0872 71.0086 21.1259ZM37.7544 54.3211L38.0973 58.8002C39.4289 58.2456 41.5901 58.2421 42.3028 58.334C43.1498 58.4433 44.8829 58.9694 44.2408 60.6094L43.5407 62.3271L43.5622 61.2528C43.5731 60.5969 43.0935 60.0346 42.4289 59.9232C40.9531 59.6761 39.4395 59.8317 38.0417 60.3748L37.8417 60.4524C37.3509 60.6428 36.9862 61.055 36.8665 61.5539L36.3805 63.335C36.2489 63.8843 36.3287 64.952 36.6038 65.4429L37.0158 66.1785C37.2803 66.6509 37.7888 66.9454 38.3454 66.9482L44.5148 66.981C45.4317 66.9858 46.2595 66.433 46.5854 65.5982L50.9637 59.3426C51.3264 58.7814 51.538 58.1746 51.5765 57.5855L51.6106 56.3674L47.0377 48.4815C45.8779 50.9831 41.4329 52.8095 37.8947 54.2634L37.7544 54.3211ZM25.1284 58.9846C24.8291 58.4074 25.0126 56.4917 25.551 56.1391L26.3757 55.5849C24.4599 55.2879 22.0638 54.9151 19.9839 54.2474L19.9295 54.2227L15.292 59.661L16.9769 63.6423C17.5294 64.7072 17.1394 65.7398 16.5312 66.7725C16.4998 66.8256 16.4648 66.875 16.4297 66.9244C16.4164 66.9432 16.403 66.962 16.3899 66.981H24.8361C26.285 66.981 27.2131 65.4055 26.5347 64.0971L25.1284 58.9846Z" fill="black"/>
<mask id="mask0" mask-type="alpha" maskUnits="userSpaceOnUse" x="-1" y="0" width="73" height="67">
<path fill-rule="evenodd" clip-rule="evenodd" d="M71.0086 21.1259C71.0086 21.1259 65.2822 25.8339 63.7366 27.1803C63.4438 27.4352 62.9782 27.2813 62.8966 26.8966C61.9702 22.6215 58.2598 14.8215 58.0246 14.3406L61.5382 25.4828C61.6726 25.9493 61.783 26.4205 61.8694 26.8966L68.3062 55.7259C68.4454 56.4665 68.383 57.2311 68.1286 57.938L63.9574 65.1802C63.583 66.2237 62.5942 66.9162 61.4902 66.9162H54.055C53.3836 66.9162 52.7644 66.5531 52.436 65.9661L51.9299 65.0624C51.586 64.4482 51.478 63.7289 51.6262 63.0402L52.1682 60.5228C52.3023 59.899 52.7356 59.3817 53.3254 59.1402L53.5606 59.0441C55.2347 58.3615 57.0618 58.1548 58.8416 58.4519C59.6446 58.5862 60.2326 59.2862 60.2326 60.102V61.7418L61.0438 59.5971C61.807 57.6158 59.6518 56.9522 58.663 56.7791C58.4038 56.7358 58.015 56.7069 57.5638 56.7069C56.3878 56.7069 54.751 56.8849 53.6038 57.3898L41.815 37.4473C41.047 36.1489 40.5958 34.6918 40.4902 33.1915L39.7318 22.4195L39.559 33.3838C39.4582 35.1631 39.7414 36.3269 40.6246 37.8705L45.8854 46.9208C45.8854 49.2099 34.5635 57.3788 20.4118 52.8454L21.8134 45.8052C22.1062 44.1557 21.4678 42.8958 21.0838 42.2706L20.228 41.2384L20.359 42.5447C20.671 43.5546 20.7238 44.627 20.5174 45.6657L19.0822 52.8646L14.1094 58.4622C13.5622 58.8132 13.3702 59.5298 13.6774 60.1116L15.1126 64.0261C15.8086 65.3389 14.8582 66.9162 13.3798 66.9162H3.43793C2.71827 66.9162 2.06067 66.5085 1.73976 65.8631L1.09656 64.5695C-0.463439 61.4485 -0.353039 57.7505 1.38936 54.7257L3.68856 50.7439C4.02936 50.0803 3.61656 49.4647 3.07416 48.9502C2.72856 48.6184 2.41656 47.8297 2.41656 47.8297C1.33656 45.382 1.45656 39.8277 3.22776 37.4089L6.22776 33.0183C7.21999 31.137 10.2947 29.0366 13.8934 28.9404L27.1894 28.2287C27.6502 28.3056 27.9574 28.7577 27.8614 29.2145L27.2038 32.3355L29.7862 27.8536L38.4646 11.7919C41.671 6.57424 42.6646 6.00198 47.0662 6.05007H51.727L55.2406 1.4143C56.2486 0.0437618 58.9318 -0.172638 60.2086 0.947833L67.4614 7.30519C68.1673 7.92931 68.6511 8.60668 68.8784 9.30397C68.9233 9.44205 68.8002 9.56949 68.6617 9.52621C67.616 9.19852 66.2689 9.08448 65.863 9.08448C65.167 9.08448 64.3462 9.39225 64.3462 10.1857C64.3462 10.984 64.8231 11.5119 65.5798 11.8496C65.5663 11.8002 65.5434 11.739 65.5172 11.669C65.4068 11.3744 65.2385 10.9252 65.479 10.556C65.7046 10.2194 66.43 10.1349 66.9543 10.1393C67.3986 10.1428 68.1951 10.2819 68.7474 10.431C68.9099 10.4749 69.0186 10.623 69.0148 10.7916C69.007 11.1509 68.9771 11.3357 68.8678 11.739C68.8613 11.7662 68.8474 11.8083 68.8308 11.8587C68.7741 12.0312 68.6857 12.2999 68.7526 12.393C68.7526 12.393 70.879 15.0235 71.0278 15.1918C72.103 16.3988 71.8918 20.0872 71.0086 21.1259ZM37.7544 54.3211L38.0973 58.8002C39.4289 58.2456 41.5901 58.2421 42.3028 58.334C43.1498 58.4433 44.8829 58.9694 44.2408 60.6094L43.5407 62.3271L43.5622 61.2528C43.5731 60.5969 43.0935 60.0346 42.4289 59.9232C40.9531 59.6761 39.4395 59.8317 38.0417 60.3748L37.8417 60.4524C37.3509 60.6428 36.9862 61.055 36.8665 61.5539L36.3805 63.335C36.2489 63.8843 36.3287 64.952 36.6038 65.4429L37.0158 66.1785C37.2803 66.6509 37.7888 66.9454 38.3454 66.9482L44.5148 66.981C45.4317 66.9858 46.2595 66.433 46.5854 65.5982L50.9637 59.3426C51.3264 58.7814 51.538 58.1746 51.5765 57.5855L51.6106 56.3674L47.0377 48.4815C45.8779 50.9831 41.4329 52.8095 37.8947 54.2634L37.7544 54.3211ZM25.1284 58.9846C24.8291 58.4074 25.0126 56.4917 25.551 56.1391L26.3757 55.5849C24.4599 55.2879 22.0638 54.9151 19.9839 54.2474L19.9295 54.2227L15.292 59.661L16.9769 63.6423C17.5294 64.7072 17.1394 65.7398 16.5312 66.7725C16.4998 66.8256 16.4648 66.875 16.4297 66.9244C16.4164 66.9432 16.403 66.962 16.3899 66.981H24.8361C26.285 66.981 27.2131 65.4055 26.5347 64.0971L25.1284 58.9846Z" fill="white"/>
</mask>
<g mask="url(#mask0)">
<rect width="72" height="67.2787" fill="white"/>
</g>
</svg>
